<svg width="16" height="16" viewBox="0 0 16 16" fill="none" xmlns="http://www.w3.org/2000/svg">
<path d="M5.78769 10.8174L13.4608 3.26726C13.6419 3.08909 13.8532 3 14.0946 3C14.336 3 14.5473 3.08909 14.7284 3.26726C14.9095 3.44543 15 3.65702 15 3.902C15 4.14699 14.9095 4.35857 14.7284 4.53675L6.42146 12.7327C6.24038 12.9109 6.02912 13 5.78769 13C5.54625 13 5.33499 12.9109 5.15392 12.7327L1.26075 8.902C1.07967 8.72383 0.992908 8.51225 1.00045 8.26726C1.008 8.02227 1.10231 7.81069 1.28339 7.63252C1.46446 7.45434 1.67949 7.36526 1.92847 7.36526C2.17746 7.36526 2.39249 7.45434 2.57356 7.63252L5.78769 10.8174Z" fill="#15B376"/>
</svg>
