<svg width="20" height="20" viewBox="0 0 20 20" fill="none" xmlns="http://www.w3.org/2000/svg">
<path d="M18.3307 9.9974C18.3307 11.1502 18.112 12.2335 17.6745 13.2474C17.237 14.2613 16.6432 15.1432 15.8932 15.8932C15.1432 16.6432 14.2613 17.237 13.2474 17.6745C12.2335 18.112 11.1502 18.3307 9.9974 18.3307C8.94184 18.3307 7.93837 18.1432 6.98698 17.7682C6.03559 17.3932 5.18837 16.8759 4.44531 16.2161C3.70226 15.5564 3.09462 14.7786 2.6224 13.8828C2.15017 12.987 1.85156 12.0113 1.72656 10.9557C1.69878 10.6918 1.76128 10.487 1.91406 10.3411C2.06684 10.1953 2.2474 10.1085 2.45573 10.0807C2.66406 10.053 2.86545 10.0981 3.0599 10.2161C3.25434 10.3342 3.36545 10.5391 3.39323 10.8307C3.60156 12.5113 4.3342 13.9071 5.59115 15.0182C6.84809 16.1293 8.31684 16.6849 9.9974 16.6849C11.8585 16.6849 13.4349 16.0391 14.7266 14.7474C16.0182 13.4557 16.6641 11.8793 16.6641 10.0182C16.6641 8.15712 16.0182 6.58073 14.7266 5.28906C13.4349 3.9974 11.8585 3.35156 9.9974 3.35156C8.76128 3.35156 7.63976 3.65365 6.63281 4.25781C5.62587 4.86198 4.83073 5.66406 4.2474 6.66406H5.83073C6.06684 6.66406 6.26476 6.74392 6.42448 6.90365C6.5842 7.06337 6.66406 7.26128 6.66406 7.4974C6.66406 7.73351 6.5842 7.93142 6.42448 8.09115C6.26476 8.25087 6.06684 8.33073 5.83073 8.33073H2.4974C2.26128 8.33073 2.06337 8.25087 1.90365 8.09115C1.74392 7.93142 1.66406 7.73351 1.66406 7.4974V4.16406C1.66406 3.92795 1.74392 3.73003 1.90365 3.57031C2.06337 3.41059 2.26128 3.33073 2.4974 3.33073C2.73351 3.33073 2.93142 3.41059 3.09115 3.57031C3.25087 3.73003 3.33073 3.92795 3.33073 4.16406V4.9974C4.09462 3.98351 5.05295 3.17448 6.20573 2.57031C7.35851 1.96615 8.6224 1.66406 9.9974 1.66406C11.1502 1.66406 12.2335 1.88281 13.2474 2.32031C14.2613 2.75781 15.1432 3.35156 15.8932 4.10156C16.6432 4.85156 17.237 5.73351 17.6745 6.7474C18.112 7.76128 18.3307 8.84462 18.3307 9.9974ZM8.33073 13.3307C8.09462 13.3307 7.8967 13.2509 7.73698 13.0911C7.57726 12.9314 7.4974 12.7335 7.4974 12.4974V9.9974C7.4974 9.76128 7.57726 9.56337 7.73698 9.40365C7.8967 9.24392 8.09462 9.16406 8.33073 9.16406V8.33073C8.33073 7.8724 8.49392 7.48003 8.82031 7.15365C9.1467 6.82726 9.53906 6.66406 9.9974 6.66406C10.4557 6.66406 10.8481 6.82726 11.1745 7.15365C11.5009 7.48003 11.6641 7.8724 11.6641 8.33073V9.16406C11.9002 9.16406 12.0981 9.24392 12.2578 9.40365C12.4175 9.56337 12.4974 9.76128 12.4974 9.9974V12.4974C12.4974 12.7335 12.4175 12.9314 12.2578 13.0911C12.0981 13.2509 11.9002 13.3307 11.6641 13.3307H8.33073ZM9.16406 9.16406H10.8307V8.33073C10.8307 8.09462 10.7509 7.8967 10.5911 7.73698C10.4314 7.57726 10.2335 7.4974 9.9974 7.4974C9.76128 7.4974 9.56337 7.57726 9.40365 7.73698C9.24392 7.8967 9.16406 8.09462 9.16406 8.33073V9.16406Z"/>
</svg>
