<svg width="18" height="18" viewBox="0 0 18 18" fill="none" xmlns="http://www.w3.org/2000/svg">
<g clip-path="url(#clip0_261_39374)">
<path d="M9 16.5C4.85786 16.5 1.5 13.1421 1.5 9C1.5 6.90559 2.35849 5.0117 3.74278 3.65102M9 16.5C8.27775 15.9648 8.39303 15.3416 8.75535 14.7185C9.31245 13.7606 9.31245 13.7605 9.31245 12.4833C9.31245 11.206 10.0715 10.6072 12.75 11.1428C13.9535 11.3836 14.8306 9.72067 16.393 10.2697M9 16.5C12.7093 16.5 15.7897 13.8072 16.393 10.2697M3.74278 3.65102C4.37974 3.71824 4.73638 4.05948 5.32872 4.68537C6.4533 5.87364 7.57785 5.97279 8.32763 5.5767C9.45218 4.98257 8.50718 4.02023 9.82703 3.49724C10.6362 3.17663 10.7904 2.33699 10.4075 1.63184M3.74278 3.65102C5.09621 2.32066 6.95227 1.5 9 1.5C9.48105 1.5 9.95153 1.54529 10.4075 1.63184M16.393 10.2697C16.4633 9.85702 16.5 9.43282 16.5 9C16.5 5.33893 13.8768 2.29054 10.4075 1.63184" stroke="black" stroke-width="1.5" stroke-linejoin="round"/>
</g>
<defs>
<clipPath id="clip0_261_39374">
<rect width="18" height="18" fill="white"/>
</clipPath>
</defs>
</svg>
