<svg width="16" height="16" viewBox="0 0 16 16" fill="none" xmlns="http://www.w3.org/2000/svg">
<path d="M8.5 8.6711L4.40114 12.77C4.24778 12.9233 4.0526 13 3.81559 13C3.57858 13 3.3834 12.9233 3.23004 12.77C3.07668 12.6166 3 12.4214 3 12.1844C3 11.9474 3.07668 11.7522 3.23004 11.5989L7.3289 7.5L3.23004 3.40114C3.07668 3.24778 3 3.0526 3 2.81559C3 2.57858 3.07668 2.3834 3.23004 2.23004C3.3834 2.07668 3.57858 2 3.81559 2C4.0526 2 4.24778 2.07668 4.40114 2.23004L8.5 6.3289L12.5989 2.23004C12.7522 2.07668 12.9474 2 13.1844 2C13.4214 2 13.6166 2.07668 13.77 2.23004C13.9233 2.3834 14 2.57858 14 2.81559C14 3.0526 13.9233 3.24778 13.77 3.40114L9.6711 7.5L13.77 11.5989C13.9233 11.7522 14 11.9474 14 12.1844C14 12.4214 13.9233 12.6166 13.77 12.77C13.6166 12.9233 13.4214 13 13.1844 13C12.9474 13 12.7522 12.9233 12.5989 12.77L8.5 8.6711Z" fill="#FB5A5C"/>
</svg>
