<svg width="15" height="14" viewBox="0 0 15 14" fill="none" xmlns="http://www.w3.org/2000/svg">
<path d="M10.5682 9.69297L13.0665 12.1912L12.2415 13.0162L9.74326 10.5179C8.84499 11.2366 7.7058 11.6665 6.4668 11.6665C3.5688 11.6665 1.2168 9.3145 1.2168 6.4165C1.2168 3.5185 3.5688 1.1665 6.4668 1.1665C9.3648 1.1665 11.7168 3.5185 11.7168 6.4165C11.7168 7.6555 11.2869 8.7947 10.5682 9.69297ZM9.39787 9.26014C10.1112 8.52502 10.5501 7.52227 10.5501 6.4165C10.5501 4.16046 8.72284 2.33317 6.4668 2.33317C4.21076 2.33317 2.38346 4.16046 2.38346 6.4165C2.38346 8.67255 4.21076 10.4998 6.4668 10.4998C7.57256 10.4998 8.57531 10.0609 9.31043 9.34758L9.39787 9.26014Z" fill="#8494AC"/>
</svg>
