<svg width="24" height="24" viewBox="0 0 24 24" fill="none" xmlns="http://www.w3.org/2000/svg">
<circle cx="12" cy="12" r="12" fill="#9B3FFF"/>
<path d="M10.0075 12.4443H8.39884C8.20829 12.4443 8.11302 12.4443 8.05414 12.5053C7.99526 12.5662 7.99753 12.6603 8.00206 12.8484C8.00666 13.0399 8.01763 13.2306 8.0437 13.421C8.05447 13.4996 8.05985 13.5389 8.08565 13.5591C8.11144 13.5793 8.15825 13.5738 8.25188 13.5629C8.77085 13.5022 9.27185 13.9255 9.27185 14.4816C9.27185 14.7588 9.15229 15.0075 8.96283 15.1772C8.89354 15.2392 8.85889 15.2703 8.85642 15.3029C8.85395 15.3355 8.87895 15.3659 8.92896 15.4268C9.11029 15.6477 9.31418 15.8486 9.537 16.0261C9.58986 16.0682 9.61629 16.0893 9.64532 16.0884C9.67435 16.0876 9.704 16.0611 9.76329 16.008C9.92339 15.8649 10.1333 15.7781 10.3631 15.7781C10.8559 15.7781 11.2505 16.1907 11.2714 16.669C11.2748 16.7483 11.2766 16.788 11.2958 16.8096C11.3151 16.8311 11.348 16.836 11.4138 16.8459C11.7965 16.9031 12.2035 16.9031 12.5862 16.8459C12.652 16.836 12.6849 16.8311 12.7042 16.8096C12.7234 16.788 12.7252 16.7483 12.7286 16.669C12.7495 16.1907 13.1441 15.7781 13.6369 15.7781C13.8667 15.7781 14.0766 15.8649 14.2367 16.008C14.296 16.0611 14.3257 16.0876 14.3547 16.0884C14.3837 16.0893 14.4101 16.0682 14.463 16.0261C14.6858 15.8486 14.8897 15.6477 15.071 15.4268C15.1211 15.3659 15.1461 15.3355 15.1436 15.3029C15.1411 15.2703 15.1065 15.2392 15.0372 15.1772C14.8477 15.0075 14.7281 14.7588 14.7281 14.4816C14.7281 13.9255 15.2292 13.5022 15.7481 13.5629C15.8417 13.5738 15.8886 13.5793 15.9144 13.5591C15.9402 13.5389 15.9455 13.4996 15.9563 13.421C15.9824 13.2306 15.9933 13.0399 15.9979 12.8484C16.0025 12.6603 16.0047 12.5662 15.9459 12.5053C15.887 12.4443 15.7917 12.4443 15.6012 12.4443H13.9925C13.9006 13.4827 13.0436 14.2964 12 14.2964C10.9564 14.2964 10.0994 13.4827 10.0075 12.4443Z" stroke="white" stroke-width="0.666667" stroke-linecap="round" stroke-linejoin="round"/>
<path d="M9.77734 12.4443H14.2218" stroke="white" stroke-width="0.666667" stroke-linecap="round" stroke-linejoin="round"/>
<path d="M12 12.4443L12 9.77759" stroke="white" stroke-width="0.666667" stroke-linecap="round" stroke-linejoin="round"/>
<path d="M11.8837 10.5516C12.1276 9.86814 11.9841 9.08568 11.4486 8.55013C10.913 8.01459 10.1306 7.87114 9.44705 8.11502C9.20317 8.79853 9.34662 9.58099 9.88216 10.1165C10.4177 10.6521 11.2002 10.7955 11.8837 10.5516Z" stroke="white" stroke-width="0.666667" stroke-linecap="round" stroke-linejoin="round"/>
<path d="M12.0963 11.4594C11.8931 10.8898 12.0126 10.2377 12.4589 9.79145C12.9052 9.34516 13.5572 9.22562 14.1268 9.42886C14.33 9.99845 14.2105 10.6505 13.7642 11.0968C13.3179 11.5431 12.6659 11.6626 12.0963 11.4594Z" stroke="white" stroke-width="0.666667" stroke-linecap="round" stroke-linejoin="round"/>
</svg>
