<svg width="24" height="24" viewBox="0 0 24 24" fill="none" xmlns="http://www.w3.org/2000/svg">
<circle cx="12" cy="12" r="12" fill="#BA9980"/>
<path d="M16.9549 13.9297C16.4042 13.1647 15.1044 11.3596 13.9742 9.79543H15.1316C15.3178 9.79543 15.4249 9.57829 15.3142 9.42451C14.6206 8.46115 12.7746 5.89845 12.1837 5.09273C12.0926 4.96853 11.9105 4.9692 11.8202 5.09408L8.68614 9.42401C8.57501 9.57762 8.68188 9.79543 8.86839 9.79543H10.0375L7.04551 13.9291C6.9334 14.0839 7.04124 14.3035 7.22924 14.3035L11.4664 14.3091L11.7594 11.7338L10.6695 10.1043L11.8317 11.197L12.0067 8.69358L12.2167 11.8292L13.4808 10.6412L12.3047 12.3912L12.5189 14.3037H16.7706C16.9583 14.3037 17.0665 14.085 16.9549 13.9301V13.9297Z" fill="white"/>
<path d="M12.5022 17.4571V14.7694H11.4884V17.4346C11.4849 17.9455 11.1719 18 11.1719 18H12.8279C12.5334 17.9094 12.5042 17.5613 12.5021 17.457L12.5022 17.4571Z" fill="white"/>
</svg>
