<svg width="18" height="18" viewBox="0 0 18 18" fill="none" xmlns="http://www.w3.org/2000/svg">
<path opacity="0.998" fill-rule="evenodd" clip-rule="evenodd" d="M8.9717 0C8.99212 0 9.01259 0 9.03302 0C9.10769 0.0127561 9.16981 0.0536966 9.21934 0.122821C10.4808 2.12948 11.7387 4.13929 12.9929 6.15224C13.0578 6.31146 13.0366 6.45198 12.9292 6.57374C12.8902 6.60902 12.8461 6.63136 12.7972 6.64073C12.3223 6.64258 11.8475 6.64447 11.3726 6.64632C12.5654 8.54949 13.7565 10.4542 14.9458 12.3603C14.9757 12.4135 14.9937 12.4712 15 12.5334C15 12.5483 15 12.5631 15 12.578C14.9787 12.7568 14.8922 12.8582 14.7406 12.8823C13.033 12.8851 11.3255 12.886 9.61792 12.8851C9.53302 11.9992 9.44887 11.1134 9.36557 10.2277C9.82528 9.43442 10.2868 8.64256 10.75 7.8522C10.7468 7.84846 10.7437 7.84846 10.7406 7.8522C10.2476 8.3872 9.75472 8.92226 9.26179 9.45725C9.26024 9.45541 9.25863 9.45351 9.25708 9.45167C9.17458 8.02426 9.09123 6.59691 9.00708 5.16967C8.93934 6.30694 8.86939 7.44399 8.79717 8.58076C8.34283 8.09048 7.88925 7.59919 7.43632 7.1069C7.85703 7.84383 8.28156 8.57886 8.70991 9.3121C8.70991 9.36246 8.70675 9.4127 8.70047 9.46284C8.58726 10.6054 8.47486 11.748 8.36321 12.8907C6.66195 12.8882 4.96069 12.8854 3.25943 12.8823C3.1078 12.8582 3.02132 12.7568 3 12.578C3 12.5631 3 12.5483 3 12.5334C3.00626 12.4712 3.02434 12.4135 3.05425 12.3603C4.24843 10.4566 5.44261 8.55284 6.63679 6.64911C6.15881 6.64447 5.68083 6.64168 5.20283 6.64073C5.07837 6.61064 5.00211 6.52227 4.97406 6.37555C4.96292 6.29633 4.97393 6.22191 5.00708 6.15224C6.26693 4.13958 7.52794 2.12791 8.79009 0.117239C8.83915 0.0523911 8.89972 0.0133116 8.9717 0Z" fill="black"/>
<path opacity="0.995" fill-rule="evenodd" clip-rule="evenodd" d="M9.98861 17.9999C9.32508 17.9999 8.66158 17.9999 7.99805 17.9999C8.1472 17.9397 8.25177 17.8224 8.31173 17.6481C8.3463 17.5459 8.36673 17.4399 8.37305 17.3299C8.37541 16.0608 8.37621 14.7916 8.37541 13.5225C8.78262 13.5225 9.18989 13.5225 9.5971 13.5225C9.59479 14.7991 9.59715 16.0758 9.60418 17.3523C9.61654 17.5115 9.66055 17.6567 9.73625 17.7877C9.80295 17.8882 9.88706 17.9589 9.98861 17.9999Z" fill="black"/>
</svg>
