<svg width="18" height="18" viewBox="0 0 18 18" fill="none" xmlns="http://www.w3.org/2000/svg">
<g clip-path="url(#clip0_261_39359)">
<path d="M9.75 16.4629C9.50332 16.4875 9.25313 16.5 9 16.5C4.85786 16.5 1.5 13.1421 1.5 9C1.5 4.85786 4.85786 1.5 9 1.5C13.1421 1.5 16.5 4.85786 16.5 9C16.5 9.25313 16.4875 9.50332 16.4629 9.75" stroke="black" stroke-width="1.5" stroke-linecap="round"/>
<path d="M5.625 12.75C6.67685 11.6483 8.2659 11.1781 9.75 11.3956M10.8713 7.125C10.8713 8.16052 10.0306 9 8.99362 9C7.95667 9 7.11598 8.16052 7.11598 7.125C7.11598 6.08947 7.95667 5.25 8.99362 5.25C10.0306 5.25 10.8713 6.08947 10.8713 7.125Z" stroke="black" stroke-width="1.5" stroke-linecap="round"/>
<path d="M13.875 16.5C15.3247 16.5 16.5 15.3247 16.5 13.875C16.5 12.4253 15.3247 11.25 13.875 11.25C12.4253 11.25 11.25 12.4253 11.25 13.875C11.25 15.3247 12.4253 16.5 13.875 16.5Z" stroke="black" stroke-width="1.5"/>
</g>
<defs>
<clipPath id="clip0_261_39359">
<rect width="18" height="18" fill="white"/>
</clipPath>
</defs>
</svg>
