<svg width="21" height="28" viewBox="0 0 21 28" fill="none" xmlns="http://www.w3.org/2000/svg">
<path d="M7.77076 12.9512L0 5.18042V24.6073C2.76294 29.2122 5.94799 26.526 7.19515 24.6073L7.77076 12.9512Z" fill="black"/>
<path d="M14.2461 0H9.78516L10.9364 16.5488C14.2461 15.3976 16.9803 14.1025 18.9949 12.3757C23.4559 6.33173 18.851 0.575612 14.2461 0Z" fill="black"/>
<path d="M11.0803 19.4269L17.5559 14.822L20.5779 20.5781C20.8657 21.5854 20.8397 22.6962 20.5779 23.3123C18.1315 29.0684 13.0949 26.9098 11.3681 23.6001L11.0803 19.4269Z" fill="black"/>
<path d="M8.92198 0H0V4.02928L8.20247 10.361L8.92198 0Z" fill="black"/>
</svg>
